<svg xmlns="http://www.w3.org/2000/svg" viewBox="0 0 640 512"><!--!Font Awesome Free 6.5.1 by @fontawesome - https://fontawesome.com License - https://fontawesome.com/license/free Copyright 2024 Fonticons, Inc.--><path d="M528 336c-48.6 0-88 39.4-88 88s39.4 88 88 88 88-39.4 88-88-39.4-88-88-88zm0 112c-13.2 0-24-10.8-24-24s10.8-24 24-24 24 10.8 24 24-10.8 24-24 24zm80-288h-64v-40.2c0-14.1 4.7-27.8 13.2-38.8 4.4-5.8 3.6-14.1-1.3-19.5L534.2 37.3c-6.7-7.5-18.3-6.9-24.7 .8C490.6 60.9 480 89.8 480 119.8V160H377.7L321.6 29.1A47.9 47.9 0 0 0 277.5 0H144c-26.5 0-48 21.5-48 48v146.5c-8.6-6.7-21-6.5-28.9 1.5L36 227.1c-8.6 8.6-8.6 22.5 0 31.1l5.1 5.1c-5 9.3-9 18.8-11.9 28.7H22c-12.2 0-22 9.9-22 22v44c0 12.2 9.9 22 22 22h7.1c3 9.9 6.9 19.5 11.9 28.7l-5.1 5.1c-8.6 8.6-8.6 22.5 0 31.1L67.1 476c8.6 8.6 22.5 8.6 31.1 0l5.1-5.1c9.3 5 18.8 9 28.7 11.9V490c0 12.2 9.9 22 22 22h44c12.2 0 22-9.9 22-22v-7.1c9.9-3 19.5-6.9 28.7-11.9l5.1 5.1c8.6 8.6 22.5 8.6 31.1 0l31.1-31.1c8.6-8.6 8.6-22.5 0-31.1l-5.1-5.1c5-9.3 9-18.8 11.9-28.7H330c12.2 0 22-9.9 22-22v-6h80.5c21.9-29 56.3-48 95.5-48 18.6 0 36.1 4.6 51.8 12.2l50.8-50.8c6-6 9.4-14.1 9.4-22.6V192c0-17.7-14.3-32-32-32zM176 416c-44.2 0-80-35.8-80-80s35.8-80 80-80 80 35.8 80 80-35.8 80-80 80zm22-256h-38V64h106.9l41.2 96H198z"/></svg>